<?xml version="1.0" encoding="UTF-8"?>
<svg xmlns="http://www.w3.org/2000/svg" width="920" height="420" viewBox="0 0 920 420">
  <rect width="920" height="420" fill="#f7fbf9" />
  <text x="70" y="18" font-size="20" font-weight="700" fill="#0f172a">Assignment 3 Performance Throughput and Error Rate</text>
  
        <rect x="70" y="22" width="14" height="14" fill="#0b6e4f" rx="3" />
        <text x="92" y="34" font-size="12" fill="#334155">Throughput (rps)</text>
      
        <rect x="250" y="22" width="14" height="14" fill="#c84c09" rx="3" />
        <text x="272" y="34" font-size="12" fill="#334155">Error Rate (%)</text>
      
  
      <line x1="70" y1="320" x2="890" y2="320" stroke="#d7e3dd" stroke-width="1" />
      <text x="60" y="324" text-anchor="end" font-size="12" fill="#334155">0</text>
    
      <line x1="70" y1="268" x2="890" y2="268" stroke="#d7e3dd" stroke-width="1" />
      <text x="60" y="272" text-anchor="end" font-size="12" fill="#334155">57.88</text>
    
      <line x1="70" y1="216" x2="890" y2="216" stroke="#d7e3dd" stroke-width="1" />
      <text x="60" y="220" text-anchor="end" font-size="12" fill="#334155">115.76</text>
    
      <line x1="70" y1="164" x2="890" y2="164" stroke="#d7e3dd" stroke-width="1" />
      <text x="60" y="168" text-anchor="end" font-size="12" fill="#334155">173.64</text>
    
      <line x1="70" y1="112" x2="890" y2="112" stroke="#d7e3dd" stroke-width="1" />
      <text x="60" y="116" text-anchor="end" font-size="12" fill="#334155">231.52</text>
    
      <line x1="70" y1="60" x2="890" y2="60" stroke="#d7e3dd" stroke-width="1" />
      <text x="60" y="64" text-anchor="end" font-size="12" fill="#334155">289.4</text>
    
  <line x1="70" y1="320" x2="890" y2="320" stroke="#64748b" stroke-width="1.5" />
  <line x1="70" y1="60" x2="70" y2="320" stroke="#64748b" stroke-width="1.5" />
  <rect x="80" y="172.66067726330337" width="38" height="147.33932273669663" fill="#0b6e4f" rx="4" /><text x="99" y="164.66067726330337" text-anchor="middle" font-size="11" fill="#0f172a">164</text><rect x="122" y="319.7484450587422" width="38" height="0.2515549412577747" fill="#c84c09" rx="4" /><text x="141" y="311.7484450587422" text-anchor="middle" font-size="11" fill="#0f172a">0.28</text><rect x="285" y="60" width="38" height="260" fill="#0b6e4f" rx="4" /><text x="304" y="52" text-anchor="middle" font-size="11" fill="#0f172a">289.4</text><rect x="327" y="319.0027643400138" width="38" height="0.9972356599861785" fill="#c84c09" rx="4" /><text x="346" y="311.0027643400138" text-anchor="middle" font-size="11" fill="#0f172a">1.11</text><rect x="490" y="122.19695922598478" width="38" height="197.80304077401522" fill="#0b6e4f" rx="4" /><text x="509" y="114.19695922598478" text-anchor="middle" font-size="11" fill="#0f172a">220.17</text><rect x="532" y="318.3379405666897" width="38" height="1.6620594333102974" fill="#c84c09" rx="4" /><text x="551" y="310.3379405666897" text-anchor="middle" font-size="11" fill="#0f172a">1.85</text><rect x="695" y="187.00829302004144" width="38" height="132.99170697995856" fill="#0b6e4f" rx="4" /><text x="714" y="179.00829302004144" text-anchor="middle" font-size="11" fill="#0f172a">148.03</text><rect x="737" y="319.87422252937114" width="38" height="0.12577747062888736" fill="#c84c09" rx="4" /><text x="756" y="311.87422252937114" text-anchor="middle" font-size="11" fill="#0f172a">0.14</text>
  <text x="172.5" y="385" text-anchor="middle" font-size="12" fill="#334155">normal_load</text><text x="377.5" y="385" text-anchor="middle" font-size="12" fill="#334155">peak_load</text><text x="582.5" y="385" text-anchor="middle" font-size="12" fill="#334155">spike_load</text><text x="787.5" y="385" text-anchor="middle" font-size="12" fill="#334155">endurance_load</text>
  <text x="20" y="48" font-size="12" fill="#475569">RPS / Percent</text>
</svg>
